# xmcd
#
# Track frame offsets: 
#        150
#        42376
#        80602
#        107346
#        140647
#        166700
#        203895
#        237313
#        265664
#
# Disc length: 3787 seconds
#
# Revision: 4
# Processed by: cddbd v1.5.2PL0 Copyright (c) Steve Scherf et al.
# Submitted via: ExactAudioCopy v0.99pb5
#
DISCID=720ec909
DTITLE=Barney Wilen Quartet - New York Romance
DYEAR=1994
DGENRE=Jazz
TTITLE0=No Problem
TTITLE1=Cry Me A River
TTITLE2=Blues Walk
TTITLE3=You've Changed
TTITLE4=You'd Be So Nice To Come Home To
TTITLE5=Mack The Knife
TTITLE6=Don't Fence Me In
TTITLE7=Old Devil Moon
TTITLE8=I Will Say Goodbye
EXTD=YEAR: 1994
EXTT0=
EXTT1=
EXTT2=
EXTT3=
EXTT4=
EXTT5=
EXTT6=
EXTT7=
EXTT8=
PLAYORDER=
